<svg xmlns="http://www.w3.org/2000/svg" viewBox="0 0 108 108">
  <path stroke="#000" stroke-width=".14" d="M38.946 28.588c-4.481 4.825-5.804 13.502-1.922 16.17a19.33 19.33 0 0 0-2.349 9.133c.02 9.267 6.611 17.213 15.705 18.934.393 1.823 1.43 4.199 3.97 6.724 2.442-2.51 3.424-4.94 3.79-6.81 8.826-1.96 15.107-9.796 15.11-18.848a19.33 19.33 0 0 0-2.314-9.068c4-2.59 2.695-11.37-1.823-16.235 1.225 5.465-2.867 7.924-5.117 8.845a19.27 19.27 0 0 0-10.033-2.852 19.27 19.27 0 0 0-9.977 2.818c-2.265-.944-6.251-3.406-5.04-8.81zm3.211 18.438c2.263.057 6.858 7.266 11.61 5.634-3.866 3.229-12.942 10.872-13.066-.676-.04-3.73.5-4.981 1.456-4.958zm23.874 0c.955-.024 1.494 1.228 1.454 4.958-.124 11.548-9.2 3.905-13.065.676 4.752 1.632 9.348-5.577 11.61-5.634z"/>
</svg>
